<svg xmlns="http://www.w3.org/2000/svg" viewBox="0 0 314.72 343.19"><defs><style>.cls-1{fill:#4ac5fa;}.cls-2{fill:#fb0202;}.cls-3{fill:#fff;}</style></defs><g id="レイヤー_2" data-name="レイヤー 2"><g id="レイヤー_1-2" data-name="レイヤー 1"><path class="cls-1" d="M15.12,284.35a45.68,45.68,0,0,1-.71,8.79,49.1,49.1,0,0,1-.35,6h2.46a19.71,19.71,0,0,0,4.57-.7c.47,1.64-.12,3.4-1.75,5.27a6.61,6.61,0,0,1-3.52.7,6.09,6.09,0,0,0-2.46.35q-.7,5.64-1.76,15.47-.7,5.63-1,7.74c-.24,2.81-.35,4.69-.35,5.62A1.55,1.55,0,0,0,12,335.33a5.62,5.62,0,0,0,2.46-.7,17.68,17.68,0,0,0,4.22-4.22c.94-1.17,1.17-1.06.71.35q-1.41,12-8.44,12.3t-6.68-11.6Q7,311.08,7.38,305.1l-6,.7A2.84,2.84,0,0,1,0,303q0-2.82,3.87-2.82a25.12,25.12,0,0,0,4.22-.35q.35-6.68.7-10.54c.23-2.11.47-4.1.7-6a6.48,6.48,0,0,1,2.11-4.57c.7-.7,1.52-.47,2.46.7C14.77,280.13,15.12,281.78,15.12,284.35Z"/><path class="cls-1" d="M37.62,332.87q0,1.41,1.05,1.41,3.16,0,8.79-6.33c.23,3.51-1.05,6.91-3.87,10.19q-3.51,4.22-6.68,4.22a4.64,4.64,0,0,1-3.86-1.76,10.52,10.52,0,0,1-1.76-6.32,44.32,44.32,0,0,1,.35-5.63q1.39-12.3,2.81-25a9,9,0,0,1,2.11-4.22q3.87,3.52,3.52,11.95-1,9.15-2.46,18.64Zm1.05-53.79q3.16,4.21,3.17,6.68c0,3.28-.59,5.75-1.76,7.38a2.12,2.12,0,0,1-2.81,0A7.75,7.75,0,0,1,35.86,291a3,3,0,0,1,0-3.86,55.78,55.78,0,0,0,2.46-8.09Z"/><path class="cls-1" d="M81.21,302.28q2.12,2.12,2.11,9.14,0,2.82-1,2.82c-.71,0-1.53-.82-2.47-2.46-2.1-3.28-4.45-4.93-7-4.93a8.68,8.68,0,0,0-7,3.52q-4.21,4.58-4.22,13.36,0,10.2,8.09,10.19a16,16,0,0,0,7.73-2.11,36.3,36.3,0,0,0,8.09-7.38c.93-1.17,1.17-.93.7.7a29,29,0,0,1-5.62,10.55Q75.23,342,67.85,342A11.73,11.73,0,0,1,58,336.74a21.39,21.39,0,0,1-3.87-13,25.65,25.65,0,0,1,5.63-16.53q5.61-7,13.71-7C77.46,300.17,80,300.88,81.21,302.28Z"/><path class="cls-1" d="M120.94,299.82c2.81,0,4.92.83,6.33,2.46a10,10,0,0,1,2.81,7.39,12.61,12.61,0,0,1-3.17,8.78q-4.56,4.57-13,6A9.72,9.72,0,0,1,116,327.6c.46,2.1.93,4.1,1.4,6,.47,1.41,1.76,2.11,3.87,2.11s4.57-.93,7.38-2.81c.71-.7.94-.47.71.7a14.4,14.4,0,0,1-2.11,3.52q-4.23,5.27-9.14,5.27a3.75,3.75,0,0,1-3.52-1.76q-2.46-3.51-3.52-10.19c-1.17-3.28-2.23-5-3.16-5.28-1.18-.7-2.23-1.28-3.16-1.75a2.9,2.9,0,0,1,0-2.82,2.36,2.36,0,0,1,2.46,0q10.55-.35,14.76-5.62a7.46,7.46,0,0,0,1.76-4.92,4.77,4.77,0,0,0-1.41-3.52,4.86,4.86,0,0,0-3.51-1.05q-4.22,0-13,8.08a27,27,0,0,0-2.46,7.74q-1,9.5-2.81,19.33c-.71,2.11-1.53,2.94-2.46,2.46a1.4,1.4,0,0,1-1.06-.35,10.31,10.31,0,0,1-2.11-6.33c0-2.1.23-3.39.71-3.86A13,13,0,0,0,96.68,329q2.8-19.32,6-41.83l-3.17.35,3.52-7c.7-1.64,1.63-2.46,2.81-2.46a2.87,2.87,0,0,1,1.76,1.05,7.16,7.16,0,0,1,1.4,4.57,33.05,33.05,0,0,1-.35,4.57q-1,8.79-2.81,18.63Q113.91,299.83,120.94,299.82Z"/><path class="cls-1" d="M163.83,302.28a10.49,10.49,0,0,1,2.81,7.74,10.82,10.82,0,0,1-3.51,8.43q-4.94,4.57-19.69,4.22c-.24,3.76.23,6.68,1.4,8.79q1.75,2.82,6.33,2.82a18.17,18.17,0,0,0,8.09-2.11,42.54,42.54,0,0,0,9.49-7c.93-1.17,1.29-.93,1.05.71a28,28,0,0,1-7.38,12A16,16,0,0,1,151.17,342q-6.67,0-10.19-4.57a22.15,22.15,0,0,1-4.22-13.71q0-10.55,5.62-17.58a17.66,17.66,0,0,1,14.07-6.68A10,10,0,0,1,163.83,302.28Zm-14.42,5.63q-3.87,3.16-5.62,9.84,10.54-.71,14.06-2.81,2.81-1.76,2.81-3.87a5.28,5.28,0,0,0-1.4-3.87q-1.41-1.76-4.57-1.75C153,305.45,151.29,306.27,149.41,307.91Z"/><path class="cls-1" d="M193.36,284.35a46.6,46.6,0,0,1-.7,8.79,47.11,47.11,0,0,1-.36,6h2.47a19.71,19.71,0,0,0,4.57-.7q.69,2.46-1.76,5.27a6.59,6.59,0,0,1-3.52.7,6.12,6.12,0,0,0-2.46.35q-.71,5.64-1.76,15.47-.71,5.63-1.05,7.74c-.24,2.81-.35,4.69-.35,5.62a1.55,1.55,0,0,0,1.76,1.76,5.65,5.65,0,0,0,2.46-.7,18.05,18.05,0,0,0,4.22-4.22c.93-1.17,1.16-1.06.7.35q-1.41,12-8.44,12.3t-6.68-11.6q2.81-20.38,3.17-26.36l-6,.7a2.84,2.84,0,0,1-1.41-2.81q0-2.82,3.87-2.82a25,25,0,0,0,4.22-.35q.34-6.68.7-10.54c.23-2.11.47-4.1.7-6a6.48,6.48,0,0,1,2.11-4.57c.71-.7,1.53-.47,2.46.7C193,280.13,193.36,281.78,193.36,284.35Z"/><path class="cls-1" d="M234.14,303c2.58,3,3.87,7.15,3.87,12.3q0,11.25-5.28,18.63-5.62,7.74-11.25,7.74a13.13,13.13,0,0,1-9.14-3.52q-4.58-3.86-4.57-13.36a29.83,29.83,0,0,1,5.28-17.22q5.61-7.74,13.36-7.74A10.53,10.53,0,0,1,234.14,303Zm-15.47,7.38q-4.21,5.26-4.22,13.71,0,9.5,6,9.49,4.56,0,8.09-5.27a21.91,21.91,0,0,0,3.86-11.95,11.22,11.22,0,0,0-1.4-5.63q-2.47-4.22-6-4.22Q221.83,306.5,218.67,310.37Z"/><path class="cls-1" d="M274.57,301.23c.93,1.17.93,2.23,0,3.16S271.76,306,269,306.5q-6.33,1.41-10.55,8.44-3.87,6.68-4.57,21.44-1.05,4.94-3.17,4.93-2.81-.71-2.81-7.74,2.46-19.68,2.46-22.5c-.23-2.57-.59-4.22-1.05-4.92a4.1,4.1,0,0,0-2.81-1.41,3.18,3.18,0,0,1,0-2.11,4.12,4.12,0,0,1,3.51-1.4q1.75,0,4.22,2.46c1.41,1.64,2,4.34,1.76,8.09q6.68-10.9,14.76-12.31A8.51,8.51,0,0,1,274.57,301.23Z"/><path class="cls-1" d="M308.67,302.28a10.49,10.49,0,0,1,2.81,7.74,10.78,10.78,0,0,1-3.51,8.43Q303,323,288.28,322.67c-.24,3.76.23,6.68,1.41,8.79q1.76,2.82,6.33,2.82a18.16,18.16,0,0,0,8.08-2.11,42.31,42.31,0,0,0,9.49-7c.94-1.17,1.29-.93,1.06.71a28.09,28.09,0,0,1-7.38,12A16,16,0,0,1,296,342q-6.69,0-10.2-4.57a22.21,22.21,0,0,1-4.22-13.71q0-10.55,5.63-17.58a17.62,17.62,0,0,1,14.06-6.68A10,10,0,0,1,308.67,302.28Zm-14.41,5.63q-3.87,3.16-5.63,9.84,10.55-.71,14.07-2.81,2.81-1.76,2.81-3.87a5.25,5.25,0,0,0-1.41-3.87q-1.41-1.76-4.57-1.75Q297.07,305.45,294.26,307.91Z"/><path class="cls-1" d="M269.76,113.89c0,24.65,0,49.3.13,73.94.05,9.62-4,16.61-12.6,20.93Q208,233.51,158.74,258.25a22.08,22.08,0,0,1-21.05-.05q-49.24-24.82-98.55-49.53c-8.41-4.22-12.55-11-12.55-20.44q0-57.71,0-115.42c0-9.16,3.83-16.06,12.08-20.22Q88.79,27.3,139,2.13c7.12-3.56,14.16-2.31,21.08,1.23,14.36,7.33,28.8,14.48,43.21,21.7-.15,2-1.94,2.58-3.19,3.57-12.19,9.54-20.1,21.66-21.88,37.23C175.82,87,182.92,104.43,200,117c16.89,12.39,35.4,14,54.81,5.7C260.22,120.36,264.31,116,269.76,113.89ZM123.9,204.78c-.53-16.32,1.52-32.13-1.33-47.76-1.93-10.55-8.21-18.42-17.79-23.41-4.71-2.45-9.86-4.07-14.83-1.62-3.62,1.77-5.26,1.24-7.17-2.11-2.44-4.29-6.38-7.24-10.79-9.36-11.1-5.36-21.35.29-22.16,12.63-.61,9.28.13,18.65-.43,27.94-.32,5.25,1.68,7.78,6.22,9.69,3.57,1.5,4.84,1.51,4.72-2.92q-.37-14.73,0-29.46c.2-7.77,5.28-10.13,11.81-5.81s8,10.73,8.1,17.81c.11,8.49.51,17-.13,25.46-.45,5.89,1.89,8.72,6.92,10.78,3.13,1.28,4,.9,4-2.53-.14-10-.06-20,0-30,0-3.55.14-7.39,4-9s7.19.26,10.11,2.68c5.61,4.65,7.08,11,7.14,17.92.06,7.65,0,15.31,0,23C112.22,200,112.24,200,123.9,204.78Z"/><path class="cls-2" d="M269.76,113.89c-5.45,2.13-9.54,6.47-14.95,8.78C235.4,131,216.89,129.36,200,117c-17.08-12.54-24.18-30-21.78-51.11,1.78-15.57,9.69-27.69,21.88-37.23,1.25-1,3-1.57,3.19-3.57,1.82.7,3.2-.46,4.67-1.15,19.21-9,38-7.84,55.26,4.17,17.71,12.3,25.13,30.11,23.13,51.43a50.61,50.61,0,0,1-12.87,29.17C272.05,110.29,270.39,111.72,269.76,113.89Z"/><path class="cls-1" d="M123.9,204.78c-11.66-4.76-11.68-4.76-11.71-16,0-7.66.07-15.32,0-23-.06-6.88-1.53-13.27-7.14-17.92-2.92-2.42-6.35-4.22-10.11-2.68s-3.94,5.42-4,9c0,10-.11,20,0,30,0,3.43-.84,3.81-4,2.53-5-2.06-7.37-4.89-6.92-10.78.64-8.44.24-17,.13-25.46-.09-7.08-1.69-13.56-8.1-17.81s-11.61-2-11.81,5.81q-.39,14.72,0,29.46c.12,4.43-1.15,4.42-4.72,2.92-4.54-1.91-6.54-4.44-6.22-9.69.56-9.29-.18-18.66.43-27.94.81-12.34,11.06-18,22.16-12.63,4.41,2.12,8.35,5.07,10.79,9.36,1.91,3.35,3.55,3.88,7.17,2.11,5-2.45,10.12-.83,14.83,1.62,9.58,5,15.86,12.86,17.79,23.41C125.42,172.65,123.37,188.46,123.9,204.78Z"/><path class="cls-3" d="M98.24,122.66A56.67,56.67,0,0,1,96,133.4a58.67,58.67,0,0,1-1.36,7.33l3,.38a24.65,24.65,0,0,0,5.76-.16q.48,3.15-3,6.24a8.25,8.25,0,0,1-4.45.32,7.65,7.65,0,0,0-3.09.05q-1.76,6.85-4.57,18.83c-1.16,4.56-2,7.69-2.5,9.39-.72,3.44-1.16,5.74-1.3,6.89a1.93,1.93,0,0,0,1.9,2.44,6.91,6.91,0,0,0,3.14-.48,22.35,22.35,0,0,0,5.87-4.56q2-1.95.81.54Q92.69,195.16,84,194.5t-6.46-15.36q6.63-24.73,8-32.07L78,147c-1.08-.72-1.52-2-1.3-3.69.29-2.32,2-3.28,5.21-2.88a30.82,30.82,0,0,0,5.27.22q1.45-8.19,2.5-12.91.92-3.86,1.79-7.27.92-3.85,3.31-5.32c1-.76,2-.34,2.93,1.25C98.46,117.39,98.64,119.48,98.24,122.66Z"/></g></g></svg>